<?xml version="1.0" standalone="no"?>
<!DOCTYPE svg PUBLIC "-//W3C//DTD SVG 20010904//EN"
 "http://www.w3.org/TR/2001/REC-SVG-20010904/DTD/svg10.dtd">
<svg version="1.0" xmlns="http://www.w3.org/2000/svg"
 width="576.000000pt" height="576.000000pt" viewBox="0 0 576.000000 576.000000"
 preserveAspectRatio="xMidYMid meet">
<metadata>
Created by potrace 1.11, written by Peter Selinger 2001-2013
</metadata>
<g transform="translate(0.000000,576.000000) scale(0.100000,-0.100000)"
fill="#000000" stroke="none">
<path d="M1005 4758 c-40 -14 -127 -73 -184 -123 -87 -77 -201 -200 -201 -216
0 -5 -4 -9 -8 -9 -10 0 -123 -159 -185 -260 -58 -95 -158 -302 -192 -400 -14
-41 -30 -84 -35 -95 -22 -49 -81 -302 -95 -405 -3 -25 -8 -61 -11 -80 -3 -19
-7 -105 -9 -190 -3 -85 -6 -157 -6 -160 -1 -3 0 -9 1 -15 1 -5 4 -35 6 -65 2
-30 5 -75 8 -100 2 -25 8 -74 11 -110 4 -36 9 -68 11 -71 2 -4 6 -24 10 -45 3
-22 10 -57 15 -79 5 -22 11 -49 13 -60 6 -45 86 -295 111 -350 7 -16 26 -61
41 -100 15 -38 35 -81 44 -95 10 -14 19 -32 21 -40 12 -46 179 -307 267 -413
77 -95 208 -225 262 -262 25 -16 47 -33 48 -37 2 -5 10 -8 18 -8 8 0 14 -4 14
-8 0 -13 83 -33 113 -27 70 14 114 76 102 146 -8 48 -49 102 -177 240 -152
163 -234 267 -305 387 -72 121 -194 404 -206 478 -1 10 -5 24 -9 29 -3 6 -9
26 -14 45 -4 19 -8 37 -9 40 -11 47 -34 164 -41 205 -2 17 -6 44 -9 60 -32
213 -24 530 21 760 9 44 18 91 21 105 20 108 94 311 163 448 43 86 170 289
189 302 4 3 14 14 22 26 18 26 73 89 202 226 161 174 182 217 131 277 -41 49
-110 69 -169 49z"/>
<path d="M4663 4763 c-11 -2 -37 -19 -56 -38 -82 -80 -58 -139 142 -351 82
-88 84 -90 152 -179 102 -132 199 -299 279 -480 25 -54 106 -295 115 -341 5
-26 10 -52 19 -94 1 -8 6 -28 9 -45 4 -16 9 -48 12 -70 3 -22 8 -67 12 -100 4
-33 7 -141 7 -240 0 -214 -8 -306 -41 -460 -8 -38 -16 -78 -18 -89 -3 -10 -12
-44 -21 -75 -9 -31 -17 -63 -19 -71 -10 -48 -74 -198 -140 -332 -40 -79 -128
-226 -144 -238 -4 -3 -14 -16 -23 -30 -14 -23 -43 -57 -116 -139 -13 -14 -49
-53 -81 -86 -92 -96 -170 -196 -182 -233 -16 -47 11 -95 69 -123 49 -24 90
-20 156 13 93 47 234 173 331 293 22 28 42 52 45 55 15 14 104 146 153 227 54
88 167 312 167 330 0 4 7 21 15 37 9 16 17 37 19 45 1 9 8 27 14 41 9 22 52
157 58 185 1 6 10 39 19 75 19 77 22 94 40 211 14 92 17 126 19 305 4 249 -15
427 -71 664 -17 75 -70 255 -83 285 -5 11 -21 52 -35 90 -33 85 -135 298 -148
306 -5 3 -8 9 -8 13 2 8 -17 39 -88 145 -31 46 -60 91 -66 100 -5 9 -12 18
-15 21 -3 3 -31 37 -62 75 -104 129 -248 254 -334 290 -36 15 -57 16 -101 8z"/>
<path d="M2391 4559 c-76 -16 -75 -53 3 -109 104 -75 177 -226 178 -370 0 -76
-19 -176 -45 -240 -9 -19 -16 -38 -16 -43 -3 -22 -110 -211 -201 -352 -242
-375 -315 -552 -311 -746 1 -58 6 -95 25 -188 14 -67 100 -261 116 -261 4 0
15 -15 25 -34 24 -45 155 -172 236 -229 37 -26 69 -47 73 -47 4 0 24 -11 46
-25 22 -14 40 -22 40 -19 0 4 6 2 13 -4 7 -6 45 -23 85 -37 83 -30 115 -27
110 12 -2 19 -14 29 -53 46 -60 26 -64 29 -128 92 -47 47 -110 157 -123 216
-3 13 -8 38 -12 54 -3 17 -6 80 -7 140 0 101 2 115 29 168 19 40 55 84 113
140 123 118 226 221 238 238 30 43 48 100 51 164 3 72 -1 85 -56 185 -16 28
-17 36 -6 42 28 16 88 -14 145 -70 96 -96 126 -157 123 -242 -8 -183 -7 -229
6 -275 22 -78 78 -115 164 -110 64 5 136 54 139 94 2 33 -3 75 -13 100 -17 47
-21 101 -6 101 35 -1 108 -92 144 -179 32 -80 39 -124 39 -241 -1 -168 -57
-280 -243 -479 -54 -58 -56 -68 -27 -95 16 -15 34 -22 43 -19 109 35 262 149
362 268 106 127 193 326 217 497 14 98 6 367 -13 430 -3 9 -6 25 -8 35 -19 97
-84 246 -148 341 -108 162 -301 342 -365 342 -33 0 -30 -25 16 -133 34 -80 52
-136 56 -172 2 -21 -18 -71 -38 -92 -23 -25 -74 -38 -112 -29 -47 12 -107 141
-121 261 -1 11 -3 20 -4 20 -1 0 -3 9 -4 20 -10 66 -19 117 -32 170 -8 33 -17
70 -20 83 -18 85 -79 221 -130 288 -83 111 -190 186 -359 255 -29 12 -93 27
-145 34 -24 4 -47 8 -50 9 -3 2 -20 -1 -39 -5z"/>
<path d="M1610 1527 c-109 -49 -125 -209 -28 -279 l33 -23 1343 -3 c1510 -3
1397 -8 1427 71 21 57 15 159 -12 195 -11 15 -31 33 -44 39 -33 18 -2681 17
-2719 0z"/>
</g>
</svg>
